<?xml version="1.0" encoding="iso-8859-1"?>
<!-- Generator: Adobe Illustrator 19.0.0, SVG Export Plug-In . SVG Version: 6.00 Build 0)  -->
<svg xmlns="http://www.w3.org/2000/svg" xmlns:xlink="http://www.w3.org/1999/xlink" version="1.1" id="Layer_1" x="0px" y="0px" viewBox="0 0 512 512" style="enable-background:new 0 0 512 512;" xml:space="preserve">
<path style="fill:#00C3FF;" d="M61.374,477.166h424.639c9.772,0,17.693-7.921,17.693-17.693V158.687  c0-9.772-7.921-17.693-17.693-17.693H8.294v283.093C8.294,453.402,32.058,477.166,61.374,477.166z"/>
<g>
	<path style="fill:#82D7FF;" d="M477.166,459.473H61.374c-19.516,0-35.387-15.871-35.387-35.387V167.533   c0-4.89,3.957-8.847,8.847-8.847h442.333c4.89,0,8.847,3.957,8.847,8.847v283.093C486.013,455.516,482.056,459.473,477.166,459.473   z M43.68,176.38v247.706c0,9.753,7.94,17.693,17.693,17.693H468.32v-265.4H43.68z"/>
	<path style="fill:#82D7FF;" d="M8.294,424.086L8.294,424.086c0-29.316,23.764-53.08,53.08-53.08V34.834   c-29.316,0-53.08,23.764-53.08,53.08l0,0V424.086z"/>
</g>
<g>
	<path style="fill:#FFDC64;" d="M194.073,218.575l96.27,125.891h-96.27V218.575 M149.84,379.853c0,4.886,3.961,8.847,8.847,8.847   h206.845c5.862,0,9.183-6.719,5.622-11.377L157.777,98.293c-2.57-3.361-7.937-1.543-7.937,2.687V379.853z"/>
	<path style="fill:#FFDC64;" d="M415.24,96.76l17.693-44.233l17.693,44.233V415.24c0,4.886-3.961,8.847-8.847,8.847h-17.693   c-4.886,0-8.847-3.961-8.847-8.847V96.76z"/>
</g>
<polygon style="fill:#FAEBC8;" points="415.24,96.76 415.24,105.607 450.626,105.607 450.626,96.76 432.933,52.527 "/>
<path style="fill:#FF507D;" d="M441.78,424.086h-17.693c-4.886,0-8.847-3.961-8.847-8.847V388.7h35.387v26.54  C450.626,420.125,446.665,424.086,441.78,424.086z"/>
<path d="M486.013,132.7c-4.58,0-8.294,3.713-8.294,8.294s3.713,8.294,8.294,8.294c5.183,0,9.4,4.217,9.4,9.4v300.786  c0,5.183-4.217,9.4-9.4,9.4H61.374c-24.695,0-44.786-20.091-44.786-44.786c0-24.695,20.091-44.786,44.786-44.786  c4.58,0,8.294-3.713,8.294-8.294V149.287h44.786c4.58,0,8.294-3.713,8.294-8.294s-3.713-8.294-8.294-8.294H69.667V34.834  c0-4.58-3.713-8.294-8.294-8.294C27.532,26.54,0,54.072,0,87.914v336.173c0,33.842,27.532,61.374,61.374,61.374h424.639  c14.329,0,25.987-11.658,25.987-25.987V158.687C512,144.357,500.342,132.7,486.013,132.7z M16.587,87.914  c0-21.861,15.747-40.115,36.492-44.017v319.374c-14.311,1.942-27.072,8.836-36.492,18.893V87.914z"/>
<path d="M238.307,149.287h141.55c4.58,0,8.294-3.713,8.294-8.294s-3.713-8.294-8.294-8.294h-141.55c-4.58,0-8.294,3.713-8.294,8.294  S233.726,149.287,238.307,149.287z"/>
<path d="M149.84,396.993h230.013c3.156,0,6.037-1.79,7.436-4.619s1.069-6.206-0.847-8.712L156.429,82.877  c-2.16-2.825-5.883-3.959-9.247-2.818c-3.369,1.139-5.635,4.299-5.635,7.855V388.7C141.546,393.28,145.26,396.993,149.84,396.993z   M158.134,112.412L363.07,380.406H158.134V112.412z"/>
<path d="M296.931,339.428l-96.27-125.891c-2.16-2.824-5.881-3.958-9.247-2.818c-3.368,1.14-5.634,4.301-5.634,7.856v125.891  c0,4.58,3.713,8.294,8.294,8.294h96.27c3.156,0,6.037-1.79,7.436-4.619C299.178,345.312,298.849,341.935,296.931,339.428z   M202.367,336.173v-93.099l71.193,93.099H202.367z"/>
<path d="M424.086,432.38h17.693c9.452,0,17.14-7.689,17.14-17.14V96.76c0-1.055-0.201-2.1-0.594-3.081l-17.693-44.233  c-1.258-3.148-4.308-5.213-7.7-5.213s-6.441,2.065-7.7,5.213L407.54,93.679c-0.393,0.981-0.594,2.026-0.594,3.081V415.24  C406.946,424.691,414.635,432.38,424.086,432.38z M442.333,113.901v266.505h-18.799V113.901H442.333z M441.78,415.793h-17.693  c-0.305,0-0.553-0.248-0.553-0.553v-18.246h18.799v18.246C442.333,415.545,442.085,415.793,441.78,415.793z M432.933,74.858  l8.982,22.455H423.95L432.933,74.858z"/>
<g>
</g>
<g>
</g>
<g>
</g>
<g>
</g>
<g>
</g>
<g>
</g>
<g>
</g>
<g>
</g>
<g>
</g>
<g>
</g>
<g>
</g>
<g>
</g>
<g>
</g>
<g>
</g>
<g>
</g>
</svg>
