<svg xmlns="http://www.w3.org/2000/svg" viewBox="0 0 64 64"><g id="_29-Work" data-name="29-Work"><rect x="1" y="59" width="62" height="4" style="fill:#d6e0eb"/><path d="M1,4V15H63V4Zm14,7H7V7h8Zm14,0H21V7h8Zm14,0H35V7h8Zm14,0H49V7h8Z" style="fill:#e63b47"/><path d="M10,1h2a1,1,0,0,1,1,1V8a0,0,0,0,1,0,0H9A0,0,0,0,1,9,8V2A1,1,0,0,1,10,1Z" style="fill:#d6e0eb"/><path d="M24,1h2a1,1,0,0,1,1,1V8a0,0,0,0,1,0,0H23a0,0,0,0,1,0,0V2A1,1,0,0,1,24,1Z" style="fill:#d6e0eb"/><path d="M38,1h2a1,1,0,0,1,1,1V8a0,0,0,0,1,0,0H37a0,0,0,0,1,0,0V2A1,1,0,0,1,38,1Z" style="fill:#d6e0eb"/><path d="M52,1h2a1,1,0,0,1,1,1V8a0,0,0,0,1,0,0H51a0,0,0,0,1,0,0V2A1,1,0,0,1,52,1Z" style="fill:#d6e0eb"/><rect x="1" y="15" width="62" height="44" style="fill:#fbfbfb"/><path d="M54,6H53a1,1,0,0,1-1-1V2a1,1,0,0,1,1-1H52a1,1,0,0,0-1,1V8h4V5A1,1,0,0,1,54,6Z" style="fill:#a8b7d4"/><path d="M40,6H39a1,1,0,0,1-1-1V2a1,1,0,0,1,1-1H38a1,1,0,0,0-1,1V8h4V5A1,1,0,0,1,40,6Z" style="fill:#a8b7d4"/><path d="M26,6H25a1,1,0,0,1-1-1V2a1,1,0,0,1,1-1H24a1,1,0,0,0-1,1V8h4V5A1,1,0,0,1,26,6Z" style="fill:#a8b7d4"/><path d="M12,6H11a1,1,0,0,1-1-1V2a1,1,0,0,1,1-1H10A1,1,0,0,0,9,2V8h4V5A1,1,0,0,1,12,6Z" style="fill:#a8b7d4"/><path d="M1,15V59H63V53H34C19.088,53,7,41.912,7,27V15Z" style="fill:#edf4fa"/><polygon points="1 63 1 59 63 59 63 61 6 61 6 62 63 62 63 63 1 63" style="fill:#8394b2"/><rect x="19" y="23" width="4" height="3" style="fill:#2b2b37"/><rect x="41" y="23" width="4" height="3" style="fill:#2b2b37"/><path d="M43,20a2.006,2.006,0,0,1,2,2v1H19V22a2.006,2.006,0,0,1,2-2Z" style="fill:#378be3"/><polygon points="34 43 34 46 30 46 30 43 30 40 34 40 34 43" style="fill:#edf4fa"/><path d="M46,28c0-1.1-.1-2,1-2a2.006,2.006,0,0,1,2,2V50a2.006,2.006,0,0,1-2,2H17a2.006,2.006,0,0,1-2-2V28a2.006,2.006,0,0,1,2-2c1.1,0,1,.9,1,2V39.17a2.006,2.006,0,0,0,.59,1.42l1.82,1.82a2.006,2.006,0,0,0,1.42.59H30v3h4V43h8.17a2.006,2.006,0,0,0,1.42-.59l1.82-1.82A2.006,2.006,0,0,0,46,39.17Z" style="fill:#4077de"/><path d="M47,26c-1.1,0-1,.9-1,2V39.17a2.006,2.006,0,0,1-.59,1.42l-1.82,1.82a2.006,2.006,0,0,1-1.42.59H34V40H30v3H21.83a2.006,2.006,0,0,1-1.42-.59l-1.82-1.82A2.006,2.006,0,0,1,18,39.17V28c0-1.1.1-2-1-2H47Z" style="fill:#393d48"/><path d="M41,23h4v1H44a1,1,0,0,0-1,1v1H41Z" style="fill:#171921"/><path d="M19,23h4v1H22a1,1,0,0,0-1,1v1H19Z" style="fill:#171921"/><path d="M43,22H23a1,1,0,0,1,0-2H21a2.006,2.006,0,0,0-2,2v1H45V22a1.973,1.973,0,0,0-.278-1A1.993,1.993,0,0,1,43,22Z" style="fill:#006fdb"/><path d="M47,50H17a2.006,2.006,0,0,1-2-2v2a2.006,2.006,0,0,0,2,2H47a2.006,2.006,0,0,0,2-2V48A2.006,2.006,0,0,1,47,50Z" style="fill:#005eba"/><path d="M45.41,40.59l-1.82,1.82a2.006,2.006,0,0,1-1.42.59H34v2h8.172a2,2,0,0,0,1.414-.586l1.828-1.828A2,2,0,0,0,46,41.172v-2A2.006,2.006,0,0,1,45.41,40.59Z" style="fill:#005eba"/><path d="M30,45V43H21.83a2.006,2.006,0,0,1-1.42-.59l-1.82-1.82A2.006,2.006,0,0,1,18,39.17V28c0-1.1.1-2-1-2a2.006,2.006,0,0,0-2,2,1,1,0,0,1,1,1V40.172a2,2,0,0,0,.586,1.414l2.828,2.828A2,2,0,0,0,20.828,45H28v2h6V46H30Z" style="fill:#005eba"/><path d="M47,26H17c1.1,0,1,.9,1,2a1,1,0,0,1,1-1H45a1,1,0,0,1,1,1C46,26.9,45.9,26,47,26Z" style="fill:#8394b2"/><path d="M45.41,38.59l-1.82,1.82a2.006,2.006,0,0,1-1.42.59H34v2h8.17a2.006,2.006,0,0,0,1.42-.59l1.82-1.82A2.006,2.006,0,0,0,46,39.17v-2A2.006,2.006,0,0,1,45.41,38.59Z" style="fill:#2b2b37"/><path d="M28,41H21.83a2.006,2.006,0,0,1-1.42-.59l-1.82-1.82A2.006,2.006,0,0,1,18,37.17v2a2.006,2.006,0,0,0,.59,1.42l1.82,1.82a2.006,2.006,0,0,0,1.42.59H30V40H28Z" style="fill:#2b2b37"/><path d="M62,58H2V52H0V63a1,1,0,0,0,1,1H63a1,1,0,0,0,1-1V25H62ZM2,62V60H62v2Z"/><rect x="62" y="21" width="2" height="2"/><path d="M63,3H58V5h4v9H2V5H6V3H1A1,1,0,0,0,0,4V50H2V16H62v3h2V4A1,1,0,0,0,63,3Z"/><path d="M6,11a1,1,0,0,0,1,1h8a1,1,0,0,0,1-1V7a1,1,0,0,0-1-1H14V5h8V6H21a1,1,0,0,0-1,1v4a1,1,0,0,0,1,1h8a1,1,0,0,0,1-1V7a1,1,0,0,0-1-1H28V5h8V6H35a1,1,0,0,0-1,1v4a1,1,0,0,0,1,1h8a1,1,0,0,0,1-1V7a1,1,0,0,0-1-1H42V5h8V6H49a1,1,0,0,0-1,1v4a1,1,0,0,0,1,1h8a1,1,0,0,0,1-1V7a1,1,0,0,0-1-1H56V2a2,2,0,0,0-2-2H52a2,2,0,0,0-2,2V3H42V2a2,2,0,0,0-2-2H38a2,2,0,0,0-2,2V3H28V2a2,2,0,0,0-2-2H24a2,2,0,0,0-2,2V3H14V2a2,2,0,0,0-2-2H10A2,2,0,0,0,8,2V6H7A1,1,0,0,0,6,7ZM55,9a1,1,0,0,0,1-1v2H50V8a1,1,0,0,0,1,1ZM52,2h2V7H52ZM41,9a1,1,0,0,0,1-1v2H36V8a1,1,0,0,0,1,1ZM38,2h2V7H38ZM27,9a1,1,0,0,0,1-1v2H22V8a1,1,0,0,0,1,1ZM24,2h2V7H24ZM10,2h2V7H10ZM8,8A1,1,0,0,0,9,9h4a1,1,0,0,0,1-1v2H8Z"/><path d="M46,22a3,3,0,0,0-3-3H21a3,3,0,0,0-3,3v3H17a3,3,0,0,0-3,3V50a3,3,0,0,0,3,3H47a3,3,0,0,0,3-3V28a3,3,0,0,0-3-3H46V22ZM21,21H43a1,1,0,0,1,1,1H20A1,1,0,0,1,21,21Zm24.018,6c-.016.246-.021.5-.019.743V39.172a1,1,0,0,1-.293.707l-1.828,1.828a1,1,0,0,1-.707.293H35V40a1,1,0,0,0-1-1H30a1,1,0,0,0-1,1v2H21.828a1,1,0,0,1-.707-.293l-1.828-1.828A1,1,0,0,1,19,39.172V27.743c0-.248,0-.5-.019-.743ZM33,41v4H31V41ZM24,25V24H40v1Zm-4-1h2v1H20Zm28,4V50a1,1,0,0,1-1,1H17a1,1,0,0,1-1-1V28a1,1,0,0,1,.982-1,6.737,6.737,0,0,1,.019.724V39.172a2.978,2.978,0,0,0,.879,2.121l1.828,1.828A2.978,2.978,0,0,0,21.828,44H29v2a1,1,0,0,0,1,1h4a1,1,0,0,0,1-1V44h7.172a2.978,2.978,0,0,0,2.121-.879l1.828-1.828A2.982,2.982,0,0,0,47,39.172V27.728A6.737,6.737,0,0,1,47.018,27,1,1,0,0,1,48,28Zm-6-3V24h2v1Z"/></g></svg>